<svg width="900" height="1100" viewBox="0 0 900 1100" fill="none" xmlns="http://www.w3.org/2000/svg">
  <defs>
    <linearGradient id="a" x1="0" y1="0" x2="900" y2="1100" gradientUnits="userSpaceOnUse">
      <stop stop-color="#15120F"/>
      <stop offset="1" stop-color="#0A0A0A"/>
    </linearGradient>
    <radialGradient id="b" cx="0" cy="0" r="1" gradientUnits="userSpaceOnUse" gradientTransform="translate(620 260) rotate(123) scale(480 450)">
      <stop stop-color="#DFA24D" stop-opacity="0.45"/>
      <stop offset="1" stop-color="#DFA24D" stop-opacity="0"/>
    </radialGradient>
  </defs>
  <rect width="900" height="1100" fill="url(#a)"/>
  <rect width="900" height="1100" fill="url(#b)"/>
  <g opacity="0.22">
    <path d="M120 940L780 240" stroke="#C9A550" stroke-width="2"/>
    <path d="M180 980L840 280" stroke="#C9A550" stroke-width="2"/>
  </g>
  <circle cx="446" cy="320" r="98" fill="#BE8B45"/>
  <path d="M280 690C280 560 356 462 450 462C544 462 620 560 620 690V962H280V690Z" fill="#8C6432"/>
  <path d="M350 652C350 562 390 506 450 506C510 506 550 562 550 652V952H350V652Z" fill="#2A1E12"/>
  <rect x="302" y="734" width="296" height="60" rx="30" fill="#D4AD71" fill-opacity="0.36"/>
  <text x="450" y="1040" text-anchor="middle" fill="#D8B981" font-family="DM Sans, sans-serif" font-size="42" letter-spacing="8">COACHING</text>
</svg>
